<?xml version="1.0" encoding="UTF-8"?>
<svg class="iconLeftSlogan" data-v-fde0c5aa="" viewBox="0 0 300 300" xmlns="http://www.w3.org/2000/svg">
<rect class="logo-background-square" width="300px" height="300px" fill="transparent" data-v-fde0c5aa=""/>
<g transform="matrix(1.7196 0 0 1.7196 93.285 130.22)" fill="#2e3034" data-v-fde0c5aa="">
<path d="m5 7.08h0.87v1.85s-0.59 0.06-1.17 0.06c-1.73 0-2.08-0.72-2.08-3.25 0-2.67 0.49-3.22 2.14-3.22 1.27 0 2.95 0.18 2.95 0.18l0.06-1.5s-1.85-0.39-3.32-0.39c-2.81 0-3.82 1.46-3.82 4.93 0 3.19 0.78 4.93 3.89 4.93 1.25 0 3.25-0.32 3.25-0.32v-4.95h-2.77zm7.28-3.75c-2.44 0-3.22 1.5-3.22 3.66 0 2.15 0.78 3.68 3.22 3.68 2.43 0 3.22-1.53 3.22-3.68 0-2.16-0.79-3.66-3.22-3.66zm0 5.74c-1.04 0-1.32-0.73-1.32-2.08 0-1.36 0.28-2.06 1.32-2.06 1.03 0 1.31 0.7 1.31 2.06 0 1.35-0.28 2.08-1.31 2.08zm7.84 1.43h6.16v-1.68h-4.23v-2.28h3.39v-1.65h-3.39v-2.23h4.23v-1.68h-6.16zm9.46 0v-5.24s0.62-0.25 1.28-0.25c0.91 0 1.05 0.69 1.05 1.75v3.74h1.87v-3.79c0-2.15-0.5-3.38-2.46-3.38-0.8 0-1.75 0.56-1.75 0.56v-0.39h-1.86v7zm5.21-7 1.68 7h3.19l1.68-7h-1.9l-1.18 5.4h-0.39l-1.12-5.4zm7.63 7h1.88v-7h-1.88zm0-7.9h1.88v-1.9h-1.88zm3.61 7.9h1.88v-4.69s0.99-0.35 2.22-0.59v-1.89c-1.06 0.21-2.24 0.91-2.24 0.91v-0.74h-1.86zm8.07-7.17c-2.44 0-3.22 1.5-3.22 3.66 0 2.15 0.78 3.68 3.22 3.68 2.43 0 3.22-1.53 3.22-3.68 0-2.16-0.79-3.66-3.22-3.66zm0 5.74c-1.04 0-1.32-0.73-1.32-2.08 0-1.36 0.28-2.06 1.32-2.06 1.03 0 1.31 0.7 1.31 2.06 0 1.35-0.28 2.08-1.31 2.08zm6.46 1.43v-5.24s0.62-0.25 1.28-0.25c0.91 0 1.05 0.69 1.05 1.75v3.74h1.87v-3.79c0-2.15-0.5-3.38-2.46-3.38-0.8 0-1.75 0.56-1.75 0.56v-0.39h-1.86v7zm7.75 0v-5.24s0.63-0.25 1.24-0.25c0.87 0 0.98 0.63 0.98 1.89v3.6h1.88v-3.63c0-0.54-0.06-1.59-0.06-1.59s0.74-0.27 1.3-0.27c0.84 0 0.98 0.69 0.98 1.75v3.74h1.88v-3.79c0-2.26-0.56-3.38-2.46-3.38-1.07 0-2.36 0.66-2.36 0.66-0.42-0.45-0.96-0.66-1.75-0.66-0.68 0-1.65 0.56-1.65 0.56v-0.39h-1.86v7zm12.82-1.48c-1.01 0-1.4-0.38-1.41-1.22h4.11l0.14-1.3c0-2.12-0.99-3.17-3.05-3.17-2.04 0-3.09 1.28-3.09 3.77 0 2.52 0.89 3.57 3.01 3.57 1.3 0 2.91-0.39 2.91-0.39l-0.03-1.39s-1.44 0.13-2.59 0.13zm-1.43-2.65c0.02-1.06 0.32-1.5 1.22-1.5 0.88 0 1.2 0.37 1.2 1.5zm7.49 4.13v-5.24s0.62-0.25 1.28-0.25c0.91 0 1.05 0.69 1.05 1.75v3.74h1.87v-3.79c0-2.15-0.5-3.38-2.46-3.38-0.8 0-1.75 0.56-1.75 0.56v-0.39h-1.86v7zm9.75-5.4v-1.6h-1.73v-1.95h-1.87v1.95h-0.83v1.6h0.83v2.91c0 2.01 0.49 2.66 2.18 2.66 0.49 0 1.43-0.21 1.43-0.21l-0.08-1.5s-0.68 0.03-1.07 0.03c-0.59 0-0.59-0.32-0.59-1.02v-2.87z"/>
</g>
<g transform="matrix(.16901 0 0 .16901 35.431 126.71)" fill="#488eff" data-v-fde0c5aa="">
<path d="M163.597 32.471l8.955 25.178a83.019 83.019 0 0 1 17.142 7.117l24.15-11.478 20.055 20.049-11.484 24.136c2.976 5.403 5.382 11.135 7.11 17.169l25.191 8.927v28.374l-25.191 8.954a82.47 82.47 0 0 1-7.11 17.156l11.484 24.136-20.055 20.062-24.15-11.485a82.988 82.988 0 0 1-17.142 7.125l-8.955 25.178h-28.359l-8.962-25.178a82.91 82.91 0 0 1-17.149-7.125l-24.149 11.485-20.049-20.062 11.492-24.136a82.723 82.723 0 0 1-7.118-17.156l-25.178-8.954v-28.374l25.178-8.927a82.516 82.516 0 0 1 7.118-17.169L64.928 73.337l20.049-20.049 24.149 11.478a83.592 83.592 0 0 1 17.149-7.117l8.962-25.178h28.36M149.41 176.407c21.324 0 38.617-17.293 38.617-38.617s-17.293-38.63-38.617-38.63c-21.331 0-38.631 17.306-38.631 38.63s17.3 38.617 38.631 38.617m26.206-160.989h-52.419l-4.046 11.328-6.185 17.409a87.705 87.705 0 0 0-3.991 1.659L92.3 37.86l-10.875-5.156-8.517 8.516-20.054 20.035-8.516 8.529L49.5 80.66l7.927 16.703a96.452 96.452 0 0 0-1.639 3.963l-17.402 6.199-11.355 4.018v52.483l11.355 4.024 17.402 6.192a97.626 97.626 0 0 0 1.639 3.963L49.5 194.894l-5.163 10.881 8.516 8.523 20.056 20.049 8.517 8.503 10.875-5.157 16.675-7.933c1.323.568 2.654 1.117 3.991 1.639l6.185 17.416 4.046 11.327h52.425l4.046-11.327 6.185-17.416c1.344-.521 2.675-1.07 3.99-1.639l16.676 7.933 10.875 5.157 8.516-8.503 20.063-20.049 8.516-8.523-5.17-10.881-7.926-16.689a123.093 123.093 0 0 0 1.646-3.963l17.402-6.192 11.354-4.024V111.543l-11.354-4.018-17.402-6.199a98.291 98.291 0 0 0-1.646-3.963l7.926-16.703 5.17-10.875-8.516-8.529L225.91 41.22l-8.516-8.516-10.874 5.156-16.676 7.954a87.388 87.388 0 0 0-3.99-1.659l-6.185-17.409-4.053-11.328zM149.41 159.354c-11.896 0-21.564-9.668-21.564-21.558s9.668-21.571 21.564-21.571c11.883 0 21.551 9.682 21.551 21.571s-9.661 21.558-21.551 21.558z"/>
</g>
<g transform="matrix(.54854 0 0 .54854 93.716 155.46)" fill="#2e3034" data-v-fde0c5aa="">
<path d="m7.35 12.15v3.53h-1.18v-3.28q0-0.36-0.16-0.56-0.17-0.19-0.59-0.19h-3.05v4.03h-1.18v-9.8h3.5q0.76 0 1.32 0.22 0.56 0.21 0.93 0.58 0.37 0.36 0.56 0.85 0.19 0.48 0.19 1.01v0.42q0 0.55-0.31 1.09-0.3 0.55-0.93 0.84v0.17q0.42 0.07 0.66 0.34 0.24 0.26 0.24 0.75zm-4.98-5.18v3.59h2.18q0.99 0 1.48-0.43 0.48-0.43 0.48-1.25v-0.26q0-0.74-0.48-1.19-0.49-0.46-1.48-0.46h-2.18zm20.81 5.57h-5.6q0.05 1.04 0.65 1.67t1.68 0.63q0.49 0 0.85-0.11 0.37-0.11 0.62-0.31 0.26-0.2 0.42-0.46 0.17-0.25 0.26-0.55l1.04 0.28q-0.29 0.97-1.08 1.58-0.8 0.61-2.14 0.61-0.74 0-1.36-0.26-0.63-0.26-1.08-0.74-0.44-0.47-0.7-1.13-0.25-0.66-0.25-1.46v-0.33q0-0.73 0.26-1.36t0.72-1.09q0.46-0.45 1.09-0.71 0.62-0.26 1.35-0.26 0.85 0 1.47 0.32 0.63 0.31 1.03 0.77t0.59 1.01q0.18 0.55 0.18 1.01v0.89zm-3.27-2.96q-0.46 0-0.86 0.14-0.4 0.15-0.7 0.42-0.3 0.26-0.49 0.62t-0.25 0.78h4.48q-0.03-0.45-0.21-0.82-0.19-0.36-0.5-0.61-0.3-0.25-0.68-0.39-0.39-0.14-0.79-0.14zm17.48 5.01v-0.09h-0.16q-0.34 0.7-0.93 1.04-0.6 0.34-1.26 0.34-0.68 0-1.27-0.24-0.59-0.23-1.03-0.68-0.44-0.46-0.69-1.11-0.26-0.66-0.26-1.53v-0.22q0-0.86 0.26-1.52 0.25-0.65 0.69-1.11 0.44-0.45 1.03-0.69t1.24-0.24q0.72 0 1.3 0.32 0.58 0.31 0.92 0.97h0.16v-1.09h1.1v5.51q0 0.42 0.37 0.42h0.35v1.01h-0.74q-0.47 0-0.77-0.31-0.31-0.31-0.31-0.78zm-2.24 0.25q0.49 0 0.91-0.18 0.41-0.18 0.7-0.52 0.3-0.34 0.47-0.81 0.16-0.46 0.16-1.04v-0.17q0-0.56-0.16-1.03-0.17-0.46-0.47-0.8t-0.72-0.52q-0.41-0.19-0.89-0.19-0.49 0-0.89 0.18-0.41 0.18-0.71 0.51t-0.47 0.8-0.17 1.03v0.22q0 1.19 0.63 1.85 0.62 0.67 1.61 0.67zm18.15 0.84v-1.06h-0.17q-0.17 0.32-0.43 0.56-0.26 0.23-0.56 0.39-0.3 0.15-0.63 0.23-0.34 0.08-0.65 0.08-0.7 0-1.3-0.24t-1.06-0.69q-0.45-0.45-0.71-1.11-0.26-0.67-0.26-1.52v-0.22q0-0.84 0.27-1.51 0.26-0.66 0.71-1.12 0.45-0.45 1.05-0.69t1.27-0.24q0.72 0 1.34 0.32 0.62 0.31 0.96 0.97h0.17v-3.95h1.09v9.8h-1.09zm-2.33-0.84q0.49 0 0.91-0.18t0.74-0.52q0.31-0.34 0.5-0.81 0.18-0.46 0.18-1.04v-0.17q0-0.56-0.18-1.03-0.19-0.46-0.5-0.8-0.32-0.34-0.74-0.52-0.43-0.19-0.91-0.19-0.49 0-0.91 0.18-0.43 0.18-0.75 0.52-0.31 0.33-0.48 0.79-0.18 0.47-0.18 1.03v0.22q0 0.59 0.18 1.05 0.17 0.46 0.48 0.79 0.32 0.33 0.74 0.5 0.42 0.18 0.92 0.18zm27.85-5.1v-1h2.18v-2.86h1.1v2.86h2.68v1h-2.68v4.51q0 0.42 0.37 0.42h1.98v1.01h-2.37q-0.47 0-0.77-0.31-0.31-0.31-0.31-0.78v-4.85h-2.18zm16.9 2.33v3.61h-1.09v-9.8h1.09v4.12h0.17q0.32-0.68 0.9-1.07t1.42-0.39q1.13 0 1.84 0.75t0.71 2.25v4.14h-1.09v-3.92q0-1.09-0.49-1.64-0.49-0.54-1.33-0.54-1 0-1.57 0.67-0.56 0.68-0.56 1.82zm20.87 0.47h-5.6q0.04 1.04 0.65 1.67 0.6 0.63 1.68 0.63 0.49 0 0.85-0.11t0.62-0.31 0.42-0.46q0.16-0.25 0.26-0.55l1.04 0.28q-0.3 0.97-1.09 1.58t-2.13 0.61q-0.74 0-1.37-0.26-0.62-0.26-1.07-0.74-0.45-0.47-0.7-1.13t-0.25-1.46v-0.33q0-0.73 0.26-1.36t0.72-1.09q0.46-0.45 1.09-0.71 0.62-0.26 1.35-0.26 0.85 0 1.47 0.32 0.63 0.31 1.02 0.77 0.4 0.46 0.59 1.01t0.19 1.01v0.89zm-3.27-2.96q-0.47 0-0.87 0.14-0.39 0.15-0.7 0.42-0.3 0.26-0.48 0.62-0.19 0.36-0.25 0.78h4.48q-0.03-0.45-0.22-0.82-0.19-0.36-0.49-0.61t-0.68-0.39q-0.39-0.14-0.79-0.14zm34.56-0.84-2.42 6.94h-2.16l-2.42-6.94h1.29l2.13 6.44h0.17l2.12-6.44h1.29zm14.06 5.85v-0.09h-0.17q-0.34 0.7-0.93 1.04-0.6 0.34-1.25 0.34-0.69 0-1.28-0.24-0.59-0.23-1.03-0.68-0.44-0.46-0.69-1.11-0.25-0.66-0.25-1.53v-0.22q0-0.86 0.25-1.52 0.25-0.65 0.69-1.11 0.44-0.45 1.03-0.69t1.25-0.24q0.71 0 1.29 0.32 0.58 0.31 0.92 0.97h0.17v-1.09h1.09v5.51q0 0.42 0.38 0.42h0.35v1.01h-0.74q-0.48 0-0.78-0.31t-0.3-0.78zm-2.24 0.25q0.49 0 0.9-0.18t0.71-0.52q0.29-0.34 0.46-0.81 0.17-0.46 0.17-1.04v-0.17q0-0.56-0.17-1.03-0.17-0.46-0.47-0.8t-0.71-0.52q-0.42-0.19-0.89-0.19-0.49 0-0.9 0.18-0.4 0.18-0.71 0.51-0.3 0.33-0.46 0.8-0.17 0.47-0.17 1.03v0.22q0 1.19 0.62 1.85 0.62 0.67 1.62 0.67zm12.37-5.1v-1h2.52v0.92h0.17q0.27-0.57 0.76-0.85 0.49-0.27 1.12-0.27 1.05 0 1.69 0.69 0.65 0.68 0.69 2l-1.15 0.17q0-0.97-0.46-1.4-0.46-0.42-1.14-0.42-0.43 0-0.74 0.16-0.32 0.17-0.53 0.47-0.21 0.29-0.31 0.68t-0.1 0.84v2.94h1.77v1.01h-4.45v-1.01h1.59v-4.93h-1.43zm17.41 0.79q0 0.5 0.42 0.77 0.43 0.26 1.56 0.35 1.22 0.1 1.86 0.58t0.64 1.41v0.08q0 0.5-0.21 0.9-0.2 0.4-0.56 0.68-0.35 0.28-0.86 0.43-0.52 0.15-1.12 0.15-0.81 0-1.39-0.22t-0.97-0.58q-0.38-0.35-0.58-0.81-0.19-0.45-0.22-0.91l1.03-0.26q0.07 0.8 0.62 1.28 0.55 0.49 1.46 0.49 0.77 0 1.24-0.3 0.46-0.3 0.46-0.85 0-0.59-0.46-0.84t-1.5-0.32q-1.2-0.09-1.84-0.56-0.65-0.48-0.65-1.39v-0.08q0-0.49 0.21-0.86t0.57-0.63q0.36-0.25 0.8-0.37 0.45-0.13 0.94-0.13 0.69 0 1.21 0.19 0.51 0.19 0.86 0.49t0.54 0.69 0.25 0.79l-1.04 0.25q-0.07-0.67-0.54-1.05t-1.22-0.38q-0.3 0-0.57 0.06-0.27 0.07-0.48 0.19-0.21 0.13-0.34 0.32-0.12 0.19-0.12 0.44zm36.09 2.01h-5.6q0.04 1.04 0.64 1.67t1.68 0.63q0.49 0 0.86-0.11 0.36-0.11 0.62-0.31t0.42-0.46q0.16-0.25 0.26-0.55l1.03 0.28q-0.29 0.97-1.08 1.58t-2.14 0.61q-0.74 0-1.36-0.26t-1.07-0.74q-0.45-0.47-0.7-1.13t-0.25-1.46v-0.33q0-0.73 0.26-1.36 0.25-0.63 0.72-1.09 0.46-0.45 1.08-0.71t1.35-0.26q0.86 0 1.48 0.32 0.62 0.31 1.02 0.77t0.59 1.01 0.19 1.01v0.89zm-3.28-2.96q-0.46 0-0.86 0.14-0.4 0.15-0.7 0.42-0.3 0.26-0.49 0.62t-0.24 0.78h4.48q-0.03-0.45-0.22-0.82-0.19-0.36-0.49-0.61t-0.69-0.39q-0.38-0.14-0.79-0.14zm17.49 5.01v-0.09h-0.17q-0.34 0.7-0.93 1.04-0.6 0.34-1.25 0.34-0.69 0-1.28-0.24-0.59-0.23-1.03-0.68-0.44-0.46-0.69-1.11-0.25-0.66-0.25-1.53v-0.22q0-0.86 0.25-1.52 0.25-0.65 0.69-1.11 0.44-0.45 1.03-0.69t1.25-0.24q0.71 0 1.29 0.32 0.58 0.31 0.92 0.97h0.17v-1.09h1.09v5.51q0 0.42 0.38 0.42h0.35v1.01h-0.74q-0.48 0-0.78-0.31t-0.3-0.78zm-2.24 0.25q0.49 0 0.9-0.18t0.71-0.52q0.29-0.34 0.46-0.81 0.17-0.46 0.17-1.04v-0.17q0-0.56-0.17-1.03-0.17-0.46-0.47-0.8t-0.71-0.52q-0.42-0.19-0.89-0.19-0.49 0-0.9 0.18-0.4 0.18-0.7 0.51-0.31 0.33-0.47 0.8-0.17 0.47-0.17 1.03v0.22q0 1.19 0.62 1.85 0.62 0.67 1.62 0.67zm14.21-4.31q0 0.5 0.43 0.77 0.42 0.26 1.56 0.35 1.21 0.1 1.85 0.58t0.64 1.41v0.08q0 0.5-0.2 0.9-0.21 0.4-0.56 0.68-0.36 0.28-0.87 0.43t-1.12 0.15q-0.81 0-1.39-0.22t-0.96-0.58q-0.39-0.35-0.59-0.81-0.19-0.45-0.22-0.91l1.04-0.26q0.07 0.8 0.61 1.28 0.55 0.49 1.46 0.49 0.77 0 1.24-0.3t0.47-0.85q0-0.59-0.47-0.84-0.46-0.25-1.49-0.32-1.21-0.09-1.85-0.56-0.65-0.48-0.65-1.39v-0.08q0-0.49 0.21-0.86t0.57-0.63q0.36-0.25 0.81-0.37 0.44-0.13 0.93-0.13 0.69 0 1.21 0.19t0.87 0.49 0.54 0.69q0.18 0.39 0.24 0.79l-1.04 0.25q-0.07-0.67-0.53-1.05-0.47-0.38-1.23-0.38-0.29 0-0.57 0.06-0.27 0.07-0.48 0.19-0.21 0.13-0.34 0.32-0.12 0.19-0.12 0.44zm16.28-3.87q0-0.4 0.29-0.69 0.28-0.29 0.69-0.29t0.69 0.29q0.29 0.29 0.29 0.69 0 0.41-0.29 0.7-0.28 0.28-0.69 0.28t-0.69-0.28q-0.29-0.29-0.29-0.7zm-1.99 9.02v-1.01h2.44v-4.93h-2.19v-1h3.28v5.93h2.27v1.01h-5.8zm15.4 0v-1.01h2.52v-7.78h-2.43v-1.01h3.52v8.79h2.52v1.01h-6.13zm20.61 1.37v-2.63h-0.17q-0.33 0.67-0.88 1.06-0.55 0.4-1.39 0.4-0.57 0-1.05-0.19-0.49-0.19-0.83-0.57t-0.53-0.94-0.19-1.3v-4.14h1.09v4q0 1.09 0.45 1.6 0.45 0.5 1.37 0.5 1 0 1.56-0.68 0.57-0.68 0.57-1.81v-3.61h1.09v8.65q0 0.47-0.3 0.78t-0.78 0.31h-3.96v-1.01h3.57q0.38 0 0.38-0.42z"/>
</g>
</svg>
